<?xml version="1.0" encoding="utf-8"?>

<svg xmlns="http://www.w3.org/2000/svg" xmlns:xlink="http://www.w3.org/1999/xlink" 
  height="512" width="512" viewBox="0 0 600 600">
   
  <!-- 手臂+左手掌 -->
  <ellipse stroke="black" fill="white"  stroke-width="3" cx="460" cy="420" rx="43" ry="43"/>
  <path d="M87 256 L180 300 L395 340 Q420 358 440 380 Q447 413 418 423 L396 415 L136 384 L40 275z" 
  stroke="black" fill="#00a0e9" stroke-width="3"/>
  <!-- 軀幹 -->
  <path d="M140 360 Q130 410 140 465 Q265 500 390 465 Q400 410 390 360" stroke="black" fill="#00a0e9" stroke-width="3"/> 
  <!-- 肚子 -->
  <ellipse stroke="black" fill="white"  stroke-width="3" cx="266" cy="425" rx="105" ry="80"/>
  <path d="M185 419 Q256 430 348 419 Q350 485 265 488 Q185 485 185 419" stroke="black" fill="white" 
  stroke-width="3"/>
    
  <!-- 臉-外 -->
  <ellipse stroke="black" fill="#00a0e9"  stroke-width="3" cx="266" cy="183" rx="186" ry="176"/>
  <!-- 臉-內 -->
  <path d="M115 131 C 130 50 400 50 414 131 L426 202 Q390 370 270 360 Q 135 370 100 201z " stroke="black" 
  fill="white" stroke-width="3"/>

  <!-- 中線 -->
  <path d="M265 100 V197" stroke="black" stroke-width="3"/> 
  <!-- 嘴巴 --> 
  <path d="M127 210 Q 256 185, 400 210 C330 370,198 356,128,210" stroke="black" fill="#d0112b" 
  stroke-width="3"/>
  <path d="M192 295 Q 226 250, 265 280 Q 310 250, 340 295 Q 275 356, 192 295" stroke="black" fill="#fa4c06" 
  stroke-width="3"/>
  <!-- 臉頰 --> 
  <path d="M135 140 A19 20,0 0 0 109 203 Q 125 210 , 128 210 " stroke="black" fill="white" stroke-width="3"/>
  <path d="M380 140 A19 20,0 0 1 424 203 Q 410 210 , 400 210 " stroke="black" fill="white" stroke-width="3"/>
  <!-- 眼睛 -->
  <ellipse stroke="black" fill="white"  stroke-width="3" cx="228" cy="60" rx="37" ry="45"/>
  <ellipse stroke="black" fill="white"  stroke-width="3" cx="305" cy="60" rx="37" ry="45"/>  
  <ellipse stroke="black" fill="black"  stroke-width="3" cx="245" cy="63" rx="10" ry="14"/>
  <ellipse stroke="black" fill="black"  stroke-width="3" cx="287" cy="63" rx="10" ry="14"/>
  <ellipse stroke="white" fill="white"  stroke-width="3" cx="246" cy="61" rx="5" ry="7"/>
  <ellipse stroke="white" fill="white"  stroke-width="3" cx="287" cy="61" rx="5" ry="7"/>
  <!-- 鼻子  -->
  <ellipse stroke="black" fill="#d0112b"  stroke-width="3" cx="265" cy="110" rx="25" ry="25"/>
  <ellipse stroke="white" fill="white"  stroke-width="3" cx="260" cy="105" rx="8" ry="8"/>


  
  </svg>
  <path d="M320  0 V512" stroke="lightgray" fill="white"></path>
  <text x="310" y="12" font-size="12" text-anchor="start" fill="red">320</text>
  <path d="M384  0 V512" stroke="lightgray" fill="white"></path>
  <text x="374" y="12" font-size="12" text-anchor="start" fill="red">384</text>
  <path d="M448  0 V512" stroke="lightgray" fill="white"></path>
  <text x="438" y="12" font-size="12" text-anchor="start" fill="red">448</text>
  <text x="492" y="12" font-size="12" text-anchor="start" fill="red">512</text>

  <!-- 橢圓 -->
  <ellipse fill="#00f1" stroke="#00f9" stroke-width="5" cx="266" cy="182" rx="180" ry="180"/>

</svg>


    
