<?xml version="1.0" encoding="UTF-8" standalone="no"?>
<!-- Generator: Adobe Illustrator 24.0.1, SVG Export Plug-In . SVG Version: 6.00 Build 0)  -->

<svg
   version="1.1"
   id="Layer_1"
   x="0px"
   y="0px"
   width="1000px"
   height="1000px"
   viewBox="0 0 1000 1000"
   style="enable-background:new 0 0 1000 1000;"
   xml:space="preserve"
   sodipodi:docname="initEdit.svg"
   inkscape:version="1.2.1 (9c6d41e410, 2022-07-14)"
   xmlns:inkscape="http://www.inkscape.org/namespaces/inkscape"
   xmlns:sodipodi="http://sodipodi.sourceforge.net/DTD/sodipodi-0.dtd"
   xmlns="http://www.w3.org/2000/svg"
   xmlns:svg="http://www.w3.org/2000/svg"><defs
   id="defs993" /><sodipodi:namedview
   id="namedview991"
   pagecolor="#ffffff"
   bordercolor="#000000"
   borderopacity="0.25"
   inkscape:showpageshadow="2"
   inkscape:pageopacity="0.0"
   inkscape:pagecheckerboard="0"
   inkscape:deskcolor="#d1d1d1"
   showgrid="false"
   inkscape:zoom="0.814"
   inkscape:cx="408.47666"
   inkscape:cy="358.72236"
   inkscape:window-width="1379"
   inkscape:window-height="847"
   inkscape:window-x="-2"
   inkscape:window-y="161"
   inkscape:window-maximized="0"
   inkscape:current-layer="illustration" />
<g
   id="illustration"
   style="fill:#000000">
	
	
	
	
	
	
	
	
	
	
	
	
	
	
	
	
	
	
	
	
	
	
	
	
	
	
	
	
	
	
	
<path
   style="fill:#2b0000;stroke-width:1.155"
   d="m 570.67748,30.699093 c -4.60462,0.976965 -26.17472,-1.355059 -29.07824,0 -0.68002,0.317367 -3.86152,2.361942 -4.15402,2.907997 -0.15482,0.289 0.24478,0.74086 0,0.969333 -0.51926,0.484667 -1.55777,0.484667 -2.07703,0.969332 -0.34617,0.323112 -0.69233,2.584888 -1.0385,2.907998 -0.24478,0.228474 -0.79373,-0.228473 -1.03851,0 -0.48956,0.456947 0.30962,1.360668 0,1.938665 -0.21893,0.408706 -0.81957,0.560626 -1.03851,0.969333 -0.54477,1.016966 0.8289,4.072979 0,4.846662 -0.24477,0.228475 -0.79372,-0.228474 -1.0385,0 -0.11142,0.103965 0,9.632451 0,10.662658 0,1.076694 -0.73434,6.099906 0,6.785328 0.51925,0.484666 2.59626,-0.484665 3.11552,0 0.53753,0.501722 0.50098,3.375608 1.0385,3.877331 0.24478,0.228474 0.79373,-0.228475 1.03851,0 0.25622,0.239142 0.25622,5.576851 0,5.815995 -0.24478,0.228474 -0.79373,-0.228474 -1.03851,0 -0.24478,0.228474 0.24478,0.740858 0,0.969332 -0.24478,0.228475 -0.79372,-0.228474 -1.0385,0 -0.53623,0.500516 -1.03851,1.723212 -1.03851,2.907998 0,2.243812 1.44024,2.313635 2.07701,2.907998 0.48956,0.456947 -0.30962,1.360666 0,1.938665 0.50703,0.946497 3.07185,4.887432 2.07703,5.815995 -0.51926,0.484666 -2.59628,-0.484667 -3.11553,0 -0.51926,0.484666 -0.51926,1.453998 -1.03851,1.938665 -0.89575,0.836088 -5.07528,0.429942 -6.23105,0.969333 -0.43787,0.204353 -0.60063,0.764979 -1.03851,0.969332 -0.83081,0.387733 -2.28471,-0.387733 -3.11553,0 -2.18245,1.018544 -3.14861,0.500112 -4.15402,0.969333 -0.43788,0.204353 -0.57408,0.824833 -1.03851,0.969332 -0.65682,0.204354 -1.45776,-0.288999 -2.07702,0 -0.30962,0.1445 0.24478,0.740859 0,0.969333 -0.26113,0.243738 -25.6613,0 -28.03972,0 -1.27115,0 -15.40441,0.161672 -15.57761,0 -0.24478,-0.228474 0.24477,-0.740859 0,-0.969333 -0.37037,-0.345689 -8.8322,-0.489213 -9.34658,-0.969332 -1.03851,-0.969333 0,-3.87733 -1.03851,-4.846663 -0.24478,-0.228474 -0.79373,0.228473 -1.03851,0 -0.18761,-0.175111 -1.65485,-8.148692 -1.0385,-8.723993 0.24478,-0.228474 0.79372,0.228473 1.0385,0 0.48956,-0.456947 -0.48955,-1.481718 0,-1.938665 0.24478,-0.228474 0.79373,0.228473 1.03851,0 0.48956,-0.456947 -0.48956,-1.481718 0,-1.938665 0.24478,-0.228474 0.79373,0.228473 1.03851,0 0.63803,-0.59553 0.68608,-2.258857 2.07702,-2.907998 0.30962,-0.144499 0.79373,0.228473 1.03851,0 0.67994,-0.634655 0.64584,-2.240077 2.07701,-2.907997 0.61319,-0.286175 3.80954,-1.617117 4.15404,-1.938665 0.62714,-0.585372 0,-4.896754 0,-5.815996 0,-2.584887 0.34616,0.323111 -1.03851,-0.969332 -0.48956,-0.456948 0.48956,-1.481718 0,-1.938665 -2.14872,-2.005583 0.084,3.064797 -2.07703,-0.969333 -0.68338,-1.275743 -1.68201,-14.676685 -1.0385,-16.478653 1.0805,-3.025598 0.69234,0.32311 2.07702,-0.969333 0.38494,-0.359299 0.71771,-3.278472 1.03851,-3.87733 2.16101,-4.03413 -0.0717,1.036251 2.07701,-0.969333 0.77362,-0.722083 1.49023,-3.329624 2.07701,-3.87733 0.24478,-0.228473 0.79373,0.228474 1.03851,0 0.63804,-0.595529 0.6861,-2.258857 2.07702,-2.907997 0.85562,-0.399317 1.45979,-0.39322 2.07702,-0.969333 0.34617,-0.323111 0.69233,-2.584886 1.0385,-2.907998 0.0563,-0.05252 3.05926,-1.886139 3.11553,-1.938665 0.51926,-0.484666 0.51926,-1.453998 1.03851,-1.938665 0.34617,-0.32311 2.76935,-0.646221 3.11552,-0.969332 0.51925,-0.484666 0.51925,-1.453999 1.03851,-1.938666 2.14871,-2.005583 -0.084,3.064798 2.07702,-0.969332 0.1548,-0.288999 -0.24478,-0.740858 0,-0.969333 0.86542,-0.807776 3.2886,-0.161555 4.15402,-0.969332 0.51926,-0.484666 0.51926,-1.453998 1.03852,-1.938665 0.34617,-0.323111 2.76935,-0.646221 3.11552,-0.969333 0.24478,-0.228473 -0.24478,-0.740858 0,-0.969332 0.48956,-0.456948 1.58746,0.456948 2.07701,0 0.41569,-0.387997 0.56244,-1.231817 2.07703,-1.9386645 0.61924,-0.2889994 1.58745,0.4569473 2.07701,0 0.24478,-0.2284748 -0.24478,-0.7408594 0,-0.9693331 0.98176,-0.9163662 5.36227,-0.1584184 6.23105,-0.969333 0.41569,-0.3879968 0.56243,-1.2318172 2.07701,-1.938665 0.62703,-0.2926281 2.63547,0.4480884 3.11553,0 0.24478,-0.2284736 -0.24478,-0.7408583 0,-0.9693319 0.65874,-0.6148591 3.28938,0.4035274 4.15403,0 2.25112,-1.0505893 4.9541,-1.8273852 7.26955,-2.907998 1.17994,-0.5506667 2.67002,0.2079205 5.19255,-0.96933197 2.4894,-1.16178696 13.15409,0 16.61613,0 2.04159,0 12.88355,-0.77264441 14.53911,0 4.75284,2.21812697 -4.40682,-0.40176211 3.11552,1.93866497 0.79091,0.2460731 6.03329,0.7847453 6.23105,0.9693319 0.24478,0.2284737 -0.24478,0.7408594 0,0.9693331 0.51925,0.4846665 2.59628,-0.4846665 3.11553,0 0.41569,0.3879968 0.56244,1.2318172 2.07701,1.9386649 0.30963,0.1444992 0.79373,-0.2284736 1.03851,0 0.24478,0.2284737 -0.24478,0.7408583 0,0.969332 0.48956,0.4569484 1.58746,-0.4569473 2.07701,0 0.24478,0.2284747 -0.24478,0.7408594 0,0.969333 0.24478,0.2284737 0.69235,0 1.03852,0 0.34617,0.6462217 0.49116,1.4277823 1.03851,1.9386646 0.9424,0.879632 3.19795,0.600069 4.15402,1.938665 1.4458,2.024244 1.41592,3.025419 4.15404,3.87733 0.3284,0.10218 0.79373,-0.228473 1.03851,0 0.34616,0.323112 0.69233,2.584888 1.0385,2.907998 0.24478,0.228474 0.79373,-0.228473 1.03851,0 0.24478,0.228474 -0.15481,0.680334 0,0.969333 0.43787,0.817413 1.63915,1.121252 2.07702,1.938665 0.70879,1.323152 0.69062,5.49128 1.03851,5.815995 0.24478,0.228474 0.79373,-0.228473 1.03851,0 0.94953,0.886292 -0.42571,5.593283 0,6.785328 0.15481,0.433499 0.81957,0.560626 1.0385,0.969332 0.34714,0.648016 0.47507,7.311237 0,7.754661 -0.24478,0.228474 -0.79373,-0.228473 -1.0385,0 -0.0366,0.0341 -0.66876,2.56287 -1.03851,2.907997 -0.48956,0.456948 -1.58746,-0.456947 -2.07701,0 -0.24478,0.228475 0.24477,0.740859 0,0.969333 -1.92601,1.797707 -2.2219,-10.797884 -3.11553,-11.631991 -0.24478,-0.228473 -0.72889,0.1445 -1.03851,0 -0.87575,-0.408706 -1.20127,-1.529958 -2.07701,-1.938665 -1.67359,-0.781055 -3.48078,-1.13979 -5.19255,-1.938665 -1.31114,-0.6119 -5.23408,0.930551 -6.23105,0 -0.24477,-0.228473 0.24478,-0.740858 0,-0.969332 -0.48955,-0.456948 -1.58745,0.456948 -2.07701,0 -0.24478,-0.228474 0.24478,-0.740859 0,-0.969333 -0.69598,-0.64962 -6.81324,0.884149 -7.26955,0.969333 z"
   id="path408" /><path
   style="fill:#ff6600;stroke-width:1.17956"
   d="m 457.739,91.211563 c -0.8095,1.443713 -2.3398,6.893745 -3.62596,7.818134 -0.28488,0.20475 -0.92376,-0.204751 -1.20864,0 -0.56977,0.4095 0.56975,1.327863 0,1.737363 -0.28488,0.20475 -0.92377,-0.20475 -1.20865,0 -0.31994,0.22994 0,2.24835 0,2.60604 0,0.89424 -2.10922,1.09011 -1.20865,1.73737 0.12967,0.0932 12.0106,0 13.29514,0 6.2492,0 14.55039,-1.07748 20.54705,0 4.10332,0.73728 7.6924,0.86868 12.08652,0.86868 3.89231,0 16.53915,-1.00594 19.33839,0 5.27835,1.89683 14.35208,0.86868 20.54706,0.86868 0.63073,0 18.07767,0.0374 18.12975,0 2.28008,-1.63875 -2.11485,-2.82257 -2.41731,-3.47473 -0.3822,-0.8241 0.54052,-1.82907 0,-2.60604 -0.70395,-1.011904 -1.71333,-1.594142 -2.4173,-2.606045 -0.36035,-0.517981 0.56977,-1.327863 0,-1.737363 -0.60433,-0.434341 -1.81297,-0.434341 -2.41729,-0.868682 -0.56977,-0.4095 0.36035,-1.219381 0,-1.737363 -1.14438,-1.644964 -2.4173,-2.295741 -2.4173,-4.343407"
   id="path473" /><path
   style="fill:#241c1c;stroke-width:1.16081"
   d="m 454.39999,105.11047 c -19.05093,4.03948 -2.37925,-0.56024 -10.5348,3.47472 -0.7023,0.34748 -2.92631,-0.43434 -3.51159,0 -0.27589,0.20475 0.2759,0.66394 0,0.86869 -0.27589,0.20475 -0.82154,-0.1295 -1.17052,0 -1.74494,0.64747 -2.9372,1.95856 -4.68213,2.60604 -1.00108,0.37146 -2.51052,0.49722 -3.5116,0.86868 -1.59093,0.59034 -3.09118,2.01571 -4.68212,2.60605 -0.70941,0.26323 -3.0211,0.50466 -3.51159,0.86868 -0.61693,0.45783 -0.55361,1.27953 -1.17055,1.73736 -0.11992,0.089 -4.46406,0.7608 -4.68211,0.86868 -1.17053,0.57912 -2.51684,0.99913 -3.5116,1.73737 -0.27591,0.20475 0.34898,0.73918 0,0.86868 -1.04696,0.38848 -2.68391,-0.61425 -3.51159,0 -0.2759,0.20475 0.27589,0.66393 0,0.86868 -0.8763,0.65032 -15.47572,0.19206 -16.38744,0.86868 -0.46854,0.34771 -0.63394,1.10391 -2.34108,1.73736 -2.91203,1.08055 -5.85265,-1.70424 -5.85265,1.73737 0,0.57912 -0.34898,1.21938 0,1.73736 0.93389,1.38613 31.66004,0.86868 37.45702,0.86868 3.76238,0 5.90634,0.22713 9.36425,0.86868 4.61609,0.85643 11.61212,0 16.38744,0 12.48567,0 24.97134,0 37.45701,0 12.82912,0 27.38465,-1.4344 39.79807,0.86868 5.80998,1.07794 13.86513,0 19.89905,0 14.82672,0 29.65346,0 44.4802,0 2.53051,0 27.72914,0.26985 28.09276,0 1.51119,-1.12149 -2.39764,-3.19915 -3.5116,-3.47472 -2.15174,-0.53229 -6.19443,-0.12682 -8.19372,-0.86868 -0.49354,-0.18314 -0.67699,-0.68555 -1.17053,-0.86869 -0.70674,-0.26224 -2.97051,0.40157 -3.51161,0 -0.27589,-0.20475 0.2759,-0.66393 0,-0.86868 -0.49152,-0.36477 -7.81451,-2.03099 -9.36424,-2.60604 -0.69797,-0.25899 -1.78927,0.4095 -2.34106,0 -0.2759,-0.20475 0.27589,-0.66393 0,-0.86868 -1.10816,-0.82239 -5.83005,-1.29464 -7.02319,-1.73737 -1.56776,-0.58173 -1.62193,-2.07235 -2.34106,-2.60604 -1.09338,-0.81142 -4.75928,-0.92595 -5.85266,-1.73736 -2.42188,-1.79734 3.70094,0.0703 -1.17053,-1.73737 -0.34898,-0.12949 -0.89465,0.20475 -1.17055,0 -0.27589,-0.20475 0.2759,-0.66393 0,-0.86868 -0.49049,-0.36401 -2.80218,-0.60544 -3.51159,-0.86868 -5.35705,-1.98781 4.96707,0.36004 -3.51158,-1.73736 -0.74032,-0.18314 -1.78929,0.4095 -2.34108,0 -0.27589,-0.20475 0.2759,-0.66393 0,-0.86868 -0.55179,-0.40951 -1.64309,0.25899 -2.34105,0 -0.49355,-0.18314 -0.677,-0.68555 -1.17054,-0.86869 -0.69797,-0.25899 -1.78928,0.4095 -2.34107,0 -0.58526,-0.43434 -0.58526,-1.30302 -1.17053,-1.73736 -0.78035,-0.57912 -3.90176,0.57912 -4.68211,0 -0.2759,-0.20475 0.27589,-0.66393 0,-0.86868 -0.58526,-0.43434 -2.92634,0.43434 -3.51161,0 -1.5607,-1.15824 1.95089,-0.86868 -1.17053,-0.86868"
   id="path589" /><path
   style="fill:#800080;stroke-width:1.13835"
   d="m 483.95406,89.4742 c 1.30109,1.412079 -1.44077,15.39311 0,16.50495 1.20927,0.93318 13.4692,-0.8837 15.75944,0 0.47463,0.18313 0.65106,0.68555 1.12569,0.86868 2.32433,0.89684 8.64362,0 11.25674,0 0.75045,0 1.7207,0.4095 2.25135,0 1.06697,-0.82337 0,-7.526594 0,-8.686815 0,-2.037213 -0.26533,0.409501 1.12568,-1.737363 0.37626,-0.580728 0.51494,-6.552071 0,-6.949452 -0.31556,-0.243513 -23.56984,0 -25.89052,0"
   id="path721" /><path
   style="fill:#241c1c"
   d="m 67.567568,248.15725 -0.636717,52.84748 -0.591785,49.11812 127.788734,-2.34475 140.02453,-2.56925 8.83726,93.34358 10.81876,114.27312 H 501.2285 640.04914 l 15.01903,-105.78619 13.2365,-93.23101 126.54513,1.78233 135.12563,1.90318 0,-47.91155 0,-57.73956 -183.04859,-0.78226 -259.21428,-1.10775 -270.26533,-1.15498 z"
   id="path1065"
   sodipodi:nodetypes="ccccccccccccccccccc" /><path
   style="fill:#ffff00;stroke-width:0.214286"
   d="m 400.52066,425.06142 -9.00901,9.47701 -18.66152,3.66157 12.22651,9.47701 -0.6435,10.55394 16.73102,-4.09234 16.73102,3.2308 -2.25226,-11.63088 11.26126,-7.75391 -16.40927,-3.01542 z"
   id="path1230-7" /><path
   style="fill:#ffff00;stroke-width:0.204313"
   d="m 583.50884,500 -8.19002,9.47701 -16.96501,3.66157 11.11501,9.47701 -0.585,10.55395 15.21002,-4.09235 15.21002,3.2308 -2.04751,-11.63088 10.23751,-7.75391 -14.91751,-3.01541 z"
   id="path1230-4" /><path
   style="fill:#ffff00;stroke-width:0.202794"
   d="m 604.97835,423.83292 -7.78051,9.82801 -16.11676,3.79719 10.55926,9.82801 -0.55575,10.94483 14.44952,-4.24392 14.44951,3.35046 -1.94513,-12.06165 9.72563,-8.04109 -14.17163,-3.1271 z"
   id="path1230-9-3" /><path
   style="fill:#ffff00;stroke-width:0.202794"
   d="m 827.95133,264.12777 -7.78051,9.82801 -16.11676,3.79719 10.55926,9.82801 -0.55575,10.94483 14.44952,-4.24392 14.44951,3.35046 -1.94513,-12.06165 9.72563,-8.04109 -14.17163,-3.1271 z"
   id="path1230-9" /><path
   style="fill:#ffff00;stroke-width:0.202794"
   d="m 764.68352,303.43981 -7.78051,9.82801 -16.11676,3.79719 10.55926,9.82801 -0.55575,10.94483 14.44952,-4.24392 14.44951,3.35046 -1.94513,-12.06165 9.72563,-8.04109 -14.17163,-3.1271 z"
   id="path1230-9-2" /><path
   style="fill:#ffff00;stroke-width:0.202794"
   d="m 539.86779,264.12776 -7.78051,9.82801 -16.11676,3.79719 10.55926,9.82801 -0.55575,10.94484 14.44952,-4.24393 14.44951,3.35046 -1.94513,-12.06164 9.72563,-8.04109 -14.17163,-3.1271 z"
   id="path1230-9-9" /><path
   style="fill:#ffff00;stroke-width:0.192729"
   d="m 571.70644,356.26536 -6.34726,10.88101 -13.14788,4.20403 8.61413,10.88101 -0.45338,12.11749 11.78777,-4.69862 11.78776,3.70944 -1.58682,-13.35398 7.93407,-8.90263 -11.56107,-3.46214 z"
   id="path1230-71" /><path
   style="fill:#ffff00;stroke-width:0.239498"
   d="m 461.4631,366.09336 -10.85177,9.82801 -22.47864,3.79718 14.72739,9.82802 -0.77513,10.94482 20.15328,-4.2439 20.15327,3.35045 -2.71294,-12.06165 13.56469,-8.0411 -19.76571,-3.12709 z"
   id="path1230-3" /><path
   style="fill:#ffff00;stroke-width:0.241746"
   d="m 642.50613,261.67076 -8.5995,12.63601 -17.81327,4.8821 11.67077,12.63602 -0.61426,14.07191 15.97052,-5.45645 15.97051,4.30773 -2.14988,-15.50784 10.74938,-10.33855 -15.66339,-4.02055 z"
   id="path1230-41" /><path
   style="fill:#ffff00;stroke-width:0.252997"
   d="m 120.45163,256.75676 -9.41851,12.63601 -19.509775,4.8821 12.782265,12.63601 -0.67275,14.07193 17.49152,-5.45646 17.49151,4.30773 -2.35462,-15.50784 11.77313,-10.33855 -17.15514,-4.02055 z"
   id="path1230-94" /><path
   style="fill:#ffff00;stroke-width:0.202794"
   d="m 193.43045,294.84029 -7.78051,9.82801 -16.11676,3.79719 10.55926,9.82801 -0.55575,10.94483 14.44952,-4.24392 14.44951,3.35046 -1.94513,-12.06165 9.72563,-8.04109 -14.17163,-3.1271 z"
   id="path1230-9-5" /><path
   style="fill:#ffff00;stroke-width:0.202794"
   d="m 464.92921,304.6683 -7.78051,9.82801 -16.11676,3.79719 10.55926,9.82801 -0.55575,10.94483 14.44952,-4.24392 14.44951,3.35046 -1.94513,-12.06165 9.72563,-8.04109 -14.17163,-3.1271 z"
   id="path1230-9-1" /><path
   style="fill:#ffff00;stroke-width:0.202794"
   d="m 616.03487,321.86732 -7.78051,9.82801 -16.11676,3.79719 10.55926,9.82801 -0.55575,10.94483 14.44952,-4.24392 14.44951,3.35046 -1.94513,-12.06165 9.72563,-8.04109 -14.17163,-3.1271 z"
   id="path1230-9-90" /><path
   style="fill:#ffff00;stroke-width:0.202794"
   d="m 398.59015,335.38083 -7.78051,9.82801 -16.11676,3.79719 10.55926,9.82801 -0.55575,10.94483 14.44952,-4.24392 14.44951,3.35046 -1.94513,-12.06165 9.72563,-8.04109 -14.17163,-3.1271 z"
   id="path1230-9-97" /><path
   style="fill:#ffff00;stroke-width:0.202794"
   d="m 883.84813,308.3538 -7.78051,9.82801 -16.11676,3.79719 10.55926,9.82801 -0.55575,10.94483 14.44952,-4.24392 14.44951,3.35046 -1.94513,-12.06165 9.72563,-8.04109 -14.17163,-3.1271 z"
   id="path1230-9-36" /><path
   style="fill:#ffff00;stroke-width:0.220158"
   d="m 275.12577,272.72727 -7.78051,11.58301 -16.11676,4.47526 10.55926,11.58301 -0.55575,12.89926 14.44952,-5.00175 14.44951,3.94875 -1.94513,-14.21552 9.72564,-9.477 -14.17165,-3.6855 z"
   id="path1230-36" /><path
   style="fill:#ffff00;stroke-width:0.263914"
   d="m 445.49258,491.40049 -10.85176,11.93402 -22.47865,4.61086 14.72739,11.93401 -0.77512,13.29015 20.15327,-5.15331 20.15327,4.0684 -2.71296,-14.64628 13.56471,-9.76419 -19.76571,-3.79719 z"
   id="path1230-90" /><path
   style="fill:#ffff00;stroke-width:0.202794"
   d="m 511.61226,434.88943 -7.78051,9.82801 -16.11676,3.79719 10.55926,9.82801 -0.55575,10.94483 14.44952,-4.24392 14.44951,3.35046 -1.94513,-12.06165 9.72563,-8.04109 -14.17163,-3.1271 z"
   id="path1230-9-35" /><path
   style="fill:#ffff00;stroke-width:0.232953"
   d="m 385.09126,261.67076 -7.98526,12.63601 -16.54089,4.8821 10.83714,12.63601 -0.57038,14.07193 14.82977,-5.45646 14.82976,4.30773 -1.99631,-15.50784 9.98157,-10.33855 -14.54458,-4.02055 z"
   id="path1230-2" /></g>
<g
   id="skeleton_1_"
   sodipodi:insensitive="true"
   style="opacity:0.25">
	<circle
   id="rightShoulder"
   cx="392.79999"
   cy="294.29999"
   r="8.1999998" />
	<circle
   id="rightElbow"
   cx="289.29999"
   cy="294.39999"
   r="8.1999998" />
	
		<circle
   id="rightWrist"
   transform="matrix(0.9951,-0.09853767,0.09853767,0.9951,-29.0274,13.8698)"
   cx="125.9"
   cy="300.79999"
   r="8.1999998" />
	<circle
   id="rightHip"
   cx="443.10001"
   cy="510.10001"
   r="8.1999998" />
	<circle
   id="rightKnee"
   cx="449.5"
   cy="670.29999"
   r="8.1999998" />
	<circle
   id="rightAnkle"
   cx="449.5"
   cy="878.29999"
   r="8.1999998" />
	<circle
   id="leftShoulder"
   cx="605.70001"
   cy="294.29999"
   r="8.1999998" />
	<circle
   id="leftElbow"
   cx="710.09998"
   cy="294"
   r="8.1999998" />
	<circle
   id="leftWrist"
   cx="873.5"
   cy="300.29999"
   r="8.1999998" />
	<circle
   id="leftHip"
   cx="559.5"
   cy="509.29999"
   r="8.1999998" />
	<circle
   id="leftKnee"
   cx="559.5"
   cy="670.29999"
   r="8.1999998" />
	<circle
   id="leftAnkle"
   cx="559.5"
   cy="878.29999"
   r="8.1999998" />
	<polygon
   style="fill:none;stroke:#000000;stroke-miterlimit:10"
   points="443,510.4 559.4,509.6 605.6,294.6 392.7,294.6 "
   id="polygon886" />
	<polyline
   style="fill:none;stroke:#000000;stroke-miterlimit:10"
   points="391.7,294.6 289,294.6 125.7,300.9  "
   id="polyline888" />
	<polyline
   style="fill:none;stroke:#000000;stroke-miterlimit:10"
   points="607.1,294.2 710.3,294.2 873.6,300.6  "
   id="polyline890" />
	<polyline
   style="fill:none;stroke:#000000;stroke-miterlimit:10"
   points="443,510.4 449.4,670.6 449.4,878.6  "
   id="polyline892" />
	<polyline
   style="fill:none;stroke:#000000;stroke-miterlimit:10"
   points="559.4,509.6 559.4,670.6 559.4,878.6  "
   id="polyline894" />
	<circle
   id="rightEye0"
   cx="468.60001"
   cy="160.2"
   r="0.80000001" />
	<circle
   id="rightBrow1"
   cx="466.39999"
   cy="148.3"
   r="0.80000001" />
	<circle
   id="rightBrow4"
   cx="489.70001"
   cy="151.3"
   r="0.80000001" />
	<circle
   id="nose1"
   cx="497.60001"
   cy="161.2"
   r="0.80000001" />
	<circle
   id="rightBrow3"
   cx="479.89999"
   cy="147.3"
   r="0.80000001" />
	<circle
   id="rightEye1"
   cx="473.79999"
   cy="156.5"
   r="0.80000001" />
	<circle
   id="rightBrow0"
   cx="462.39999"
   cy="152"
   r="0.80000001" />
	<circle
   id="rightBrow2"
   cx="472.60001"
   cy="147.3"
   r="0.80000001" />
	<circle
   id="rightEye5"
   cx="473.79999"
   cy="162.5"
   r="0.80000001" />
	<circle
   id="rightEye2"
   cx="480.10001"
   cy="156.5"
   r="0.80000001" />
	<circle
   id="rightEye3"
   cx="485.29999"
   cy="160.7"
   r="0.80000001" />
	<circle
   id="nose0"
   cx="497.60001"
   cy="155.39999"
   r="0.80000001" />
	<circle
   id="nose3"
   cx="497.60001"
   cy="173.8"
   r="0.80000001" />
	<circle
   id="rightNose0"
   cx="486.89999"
   cy="178.3"
   r="0.80000001" />
	<circle
   id="rightMouthCorner"
   cx="480.89999"
   cy="200.39999"
   r="0.80000001" />
	<circle
   id="rightNose1"
   cx="492.10001"
   cy="178.3"
   r="0.80000001" />
	<circle
   id="rightUpperLipTop0"
   cx="487.79999"
   cy="197"
   r="0.80000001" />
	<circle
   id="nose2"
   cx="497.60001"
   cy="166.7"
   r="0.80000001" />
	<circle
   id="nose4"
   cx="497.60001"
   cy="179.10001"
   r="0.80000001" />
	<circle
   id="upperLipTopMid"
   cx="498.39999"
   cy="196.8"
   r="0.80000001" />
	<circle
   id="rightUpperLipTop1"
   cx="494.29999"
   cy="195.89999"
   r="0.80000001" />
	<path
   id="rightMiddleLip"
   d="m 484.5,199.9 c 0.4,0 0.8,0.4 0.8,0.8 0,0.4 -0.4,0.8 -0.8,0.8 -0.4,0 -0.8,-0.4 -0.8,-0.8 0,-0.4 0.4,-0.8 0.8,-0.8 z" />
	<circle
   id="lowerLipBottomMid"
   cx="498.39999"
   cy="210"
   r="0.80000001" />
	<circle
   id="upperLipBottomMid"
   cx="498.39999"
   cy="200.39999"
   r="0.80000001" />
	<circle
   id="lowerLipTopMid"
   cx="498.39999"
   cy="203.5"
   r="0.80000001" />
	<circle
   id="rightUpperLipBottom1"
   cx="494.5"
   cy="199.89999"
   r="0.80000001" />
	<circle
   id="rightLowerLipTop0"
   cx="494.5"
   cy="202.8"
   r="0.80000001" />
	<circle
   id="rightLowerLipBottom1"
   cx="494.29999"
   cy="209.5"
   r="0.80000001" />
	<circle
   id="rightLowerLipBottom0"
   cx="487.29999"
   cy="206.7"
   r="0.80000001" />
	<circle
   id="rightEye4"
   cx="480.10001"
   cy="161.7"
   r="0.80000001" />
	<circle
   id="jawMid"
   cx="498.39999"
   cy="235.8"
   r="0.80000001" />
	<circle
   id="rightJaw7"
   cx="483.39999"
   cy="232.60001"
   r="0.80000001" />
	<circle
   id="rightJaw6"
   cx="473.39999"
   cy="225.89999"
   r="0.80000001" />
	<circle
   id="rightJaw5"
   cx="461.79999"
   cy="213.39999"
   r="0.80000001" />
	<circle
   id="rightJaw4"
   cx="455"
   cy="193.39999"
   r="0.80000001" />
	<circle
   id="rightJaw3"
   cx="454.20001"
   cy="171.7"
   r="0.80000001" />
	<circle
   id="rightJaw2"
   cx="454.20001"
   cy="162.2"
   r="0.80000001" />
	<circle
   id="rightJaw1"
   cx="455"
   cy="150.5"
   r="0.80000001" />
	<circle
   id="rightJaw0"
   cx="457.5"
   cy="141.2"
   r="0.80000001" />
	<circle
   id="topMid"
   cx="498.60001"
   cy="115.1"
   r="0.80000001" />
	<circle
   id="leftTop0"
   cx="518.29999"
   cy="117.6"
   r="0.80000001" />
	<circle
   id="leftTop1"
   cx="530.90002"
   cy="127.1"
   r="0.80000001" />
	<circle
   id="leftEye0"
   cx="528.20001"
   cy="160.2"
   r="0.80000001" />
	<circle
   id="leftBrow1"
   cx="530.09998"
   cy="148.7"
   r="0.80000001" />
	<circle
   id="leftBrow4"
   cx="506.5"
   cy="150.8"
   r="0.80000001" />
	<circle
   id="leftBrow3"
   cx="516.5"
   cy="147.60001"
   r="0.80000001" />
	<circle
   id="leftEye1"
   cx="523"
   cy="156.5"
   r="0.80000001" />
	<circle
   id="leftBrow0"
   cx="534.09998"
   cy="151.60001"
   r="0.80000001" />
	<circle
   id="leftBrow2"
   cx="523.79999"
   cy="147.2"
   r="0.80000001" />
	<circle
   id="leftEye5"
   cx="523"
   cy="162.5"
   r="0.80000001" />
	<circle
   id="leftEye2"
   cx="516.70001"
   cy="156.5"
   r="0.80000001" />
	<circle
   id="leftEye3"
   cx="511.5"
   cy="160.7"
   r="0.80000001" />
	<circle
   id="leftNose0"
   cx="508"
   cy="178.3"
   r="0.80000001" />
	<circle
   id="leftMouthCorner"
   cx="515.90002"
   cy="200.39999"
   r="0.80000001" />
	<circle
   id="leftNose1"
   cx="503.20001"
   cy="178.3"
   r="0.80000001" />
	<circle
   id="leftUpperLipTop0"
   cx="509"
   cy="197"
   r="0.80000001" />
	<circle
   id="leftUpperLipTop1"
   cx="502.60001"
   cy="195.89999"
   r="0.80000001" />
	<path
   id="leftMiddleLip"
   d="m 512.3,199.9 c 0.4,0 0.8,0.4 0.8,0.8 0,0.4 -0.4,0.8 -0.8,0.8 -0.4,0 -0.8,-0.4 -0.8,-0.8 0,-0.4 0.4,-0.8 0.8,-0.8 z" />
	<circle
   id="leftUpperLipBottom1"
   cx="502.39999"
   cy="199.89999"
   r="0.80000001" />
	<circle
   id="leftLowerLipTop0"
   cx="502.39999"
   cy="202.8"
   r="0.80000001" />
	<circle
   id="leftLowerLipBottom1"
   cx="502.60001"
   cy="209.5"
   r="0.80000001" />
	<circle
   id="leftLowerLipBottom0"
   cx="509.5"
   cy="206.7"
   r="0.80000001" />
	<circle
   id="leftEye4"
   cx="516.70001"
   cy="161.7"
   r="0.80000001" />
	<circle
   id="leftJaw7"
   cx="513.20001"
   cy="233"
   r="0.80000001" />
	<circle
   id="leftJaw6"
   cx="523.20001"
   cy="226.3"
   r="0.80000001" />
	<circle
   id="leftJaw5"
   cx="534.79999"
   cy="213.7"
   r="0.80000001" />
	<circle
   id="leftJaw4"
   cx="541.59998"
   cy="193.7"
   r="0.80000001" />
	<circle
   id="leftJaw3"
   cx="542.40002"
   cy="172.10001"
   r="0.80000001" />
	<circle
   id="leftJaw2"
   cx="542.40002"
   cy="162.5"
   r="0.80000001" />
	<circle
   id="leftJaw1"
   cx="541.59998"
   cy="150.8"
   r="0.80000001" />
	<circle
   id="leftJaw0"
   cx="539.09998"
   cy="141.60001"
   r="0.80000001" />
	<polyline
   style="fill:none;stroke:#000000;stroke-miterlimit:10"
   points="498.4,115.1 478.6,117.6 466.1,127.1 457.5,141.2    455,150.5 454.2,162.2 454.2,171.7 455,193.4 461.8,213.4 473.4,225.9 483.4,232.6 498.4,235.8 513.2,233 523.2,226.3 534.8,213.7    541.6,193.7 542.4,172.1 542.4,162.5 541.6,150.8 539.1,141.6 530.9,127.1 518.3,117.6 498.4,115.1  "
   id="polyline967" />
	<polyline
   style="fill:none;stroke:#000000;stroke-miterlimit:10"
   points="462.4,152 466.4,148.3 472.6,147.3 479.9,147.3    489.7,151.3  "
   id="polyline969" />
	<polygon
   style="fill:none;stroke:#000000;stroke-miterlimit:10"
   points="473.8,156.5 480.1,156.5 485.3,160.7 480.1,161.7 473.8,162.5 468.6,160.2 "
   id="polygon971" />
	<polyline
   style="fill:none;stroke:#000000;stroke-miterlimit:10"
   points="486.9,178.3 492.1,178.3 497.6,179.1 497.6,173.8    497.6,166.7 497.6,161.2 497.6,155.4  "
   id="polyline973" />
	<polyline
   style="fill:none;stroke:#000000;stroke-miterlimit:10"
   points="533.9,151.6 529.9,148.7 523.6,147.2 516.3,147.6    506.3,150.8  "
   id="polyline975" />
	<polygon
   style="fill:none;stroke:#000000;stroke-miterlimit:10"
   points="522.7,156.5 516.4,156.5 511.3,160.7 516.4,161.7 522.7,162.5 528,160.2 "
   id="polygon977" />
	<polyline
   style="fill:none;stroke:#000000;stroke-miterlimit:10"
   points="508,178.3 503,178.3 497.6,179.1  "
   id="polyline979" />
	<polygon
   style="fill:none;stroke:#000000;stroke-miterlimit:10"
   points="487.8,197 494.3,195.9 498.4,196.8 502.6,195.9 509,197 515.9,200.4 509.5,206.7 502.4,209.5 498.4,210 494.3,209.5 487.3,206.7 480.9,200.4 "
   id="polygon981" />
	<polyline
   style="fill:none;stroke:#000000;stroke-miterlimit:10"
   points="480.9,200.4 484.5,200.7 494.5,199.9 498.4,200.4    502.4,199.9 512.3,200.7 515.9,200.4  "
   id="polyline983" />
	<polyline
   style="fill:none;stroke:#000000;stroke-miterlimit:10"
   points="480.9,200.4 484.5,200.7 494.5,202.8 498.4,203.6    502.4,202.8 512.3,200.7 515.9,200.4  "
   id="polyline985" />
	<circle
   id="rightTop0"
   cx="478.70001"
   cy="117.6"
   r="0.80000001" />
	<circle
   id="rightTop1"
   cx="466.10001"
   cy="127.1"
   r="0.80000001" />
</g>
</svg>
